<svg width="30" height="30" viewBox="0 0 30 30" fill="none" xmlns="http://www.w3.org/2000/svg">
<g clip-path="url(#clip0_22_379)">
<path fill-rule="evenodd" clip-rule="evenodd" d="M21.9412 20.1325C22.215 19.9956 22.5295 19.9638 22.8251 20.0433C23.1207 20.1228 23.3768 20.308 23.545 20.5638L23.6175 20.6912L26.1175 25.6912C26.2067 25.8696 26.252 26.0666 26.2495 26.266C26.247 26.4653 26.1969 26.6612 26.1033 26.8373C26.0097 27.0133 25.8754 27.1644 25.7115 27.278C25.5476 27.3915 25.3589 27.4642 25.1612 27.49L25 27.5H5C4.80059 27.5001 4.60405 27.4524 4.42681 27.361C4.24956 27.2697 4.09675 27.1372 3.98113 26.9747C3.86552 26.8123 3.79045 26.6245 3.7622 26.4271C3.73395 26.2297 3.75334 26.0284 3.81875 25.84L3.88125 25.69L6.38125 20.69C6.52137 20.4004 6.76778 20.1759 7.06919 20.0634C7.37061 19.9508 7.70382 19.9588 7.99948 20.0857C8.29515 20.2126 8.5305 20.4486 8.65655 20.7446C8.78261 21.0407 8.78966 21.3739 8.67625 21.675L8.6175 21.8088L7.0225 25H22.9775L21.3825 21.8088C21.2345 21.5123 21.2102 21.1693 21.3149 20.855C21.4197 20.5407 21.645 20.2808 21.9412 20.1325ZM15 2.5C17.3206 2.5 19.5462 3.42187 21.1872 5.06282C22.8281 6.70376 23.75 8.92936 23.75 11.25C23.75 14.2275 22.1388 16.6462 20.4712 18.3625C19.5501 19.298 18.5376 20.1389 17.4487 20.8725L16.9825 21.18L16.5675 21.4412C16.5025 21.48 16.44 21.5163 16.3812 21.5537L16.06 21.7388C15.4 22.1138 14.6 22.1138 13.94 21.7388L13.6187 21.5525L13.2312 21.3162C13.1597 21.2713 13.0885 21.2258 13.0175 21.18L12.5512 20.8725C11.4624 20.1389 10.4499 19.298 9.52875 18.3625C7.86125 16.6462 6.25 14.2275 6.25 11.25C6.25 8.92936 7.17187 6.70376 8.81281 5.06282C10.4538 3.42187 12.6794 2.5 15 2.5ZM15 5C13.3424 5 11.7527 5.65848 10.5806 6.83058C9.40848 8.00269 8.75 9.5924 8.75 11.25C8.75 13.295 9.8625 15.1187 11.3212 16.62C12.1981 17.5069 13.1679 18.2968 14.2137 18.9762L14.6387 19.2475C14.77 19.3288 14.8912 19.4012 15 19.465L15.3625 19.2475L15.7862 18.9762C16.8321 18.2968 17.8019 17.5069 18.6787 16.62C20.1375 15.12 21.25 13.295 21.25 11.25C21.25 9.5924 20.5915 8.00269 19.4194 6.83058C18.2473 5.65848 16.6576 5 15 5ZM15 7.5C15.9946 7.5 16.9484 7.89509 17.6516 8.59835C18.3549 9.30161 18.75 10.2554 18.75 11.25C18.75 12.2446 18.3549 13.1984 17.6516 13.9017C16.9484 14.6049 15.9946 15 15 15C14.0054 15 13.0516 14.6049 12.3483 13.9017C11.6451 13.1984 11.25 12.2446 11.25 11.25C11.25 10.2554 11.6451 9.30161 12.3483 8.59835C13.0516 7.89509 14.0054 7.5 15 7.5ZM15 10C14.6685 10 14.3505 10.1317 14.1161 10.3661C13.8817 10.6005 13.75 10.9185 13.75 11.25C13.75 11.5815 13.8817 11.8995 14.1161 12.1339C14.3505 12.3683 14.6685 12.5 15 12.5C15.3315 12.5 15.6495 12.3683 15.8839 12.1339C16.1183 11.8995 16.25 11.5815 16.25 11.25C16.25 10.9185 16.1183 10.6005 15.8839 10.3661C15.6495 10.1317 15.3315 10 15 10Z" fill="#FFCD00"/>
</g>
<defs>
<clipPath id="clip0_22_379">
<path d="M0 10C0 4.47715 4.47715 0 10 0H20C25.5228 0 30 4.47715 30 10V20C30 25.5228 25.5228 30 20 30H10C4.47715 30 0 25.5228 0 20V10Z" fill="white"/>
</clipPath>
</defs>
</svg>
