<svg width="30" height="30" viewBox="0 0 30 30" fill="none" xmlns="http://www.w3.org/2000/svg">
<g clip-path="url(#clip0_21_354)">
<path d="M25 5C25.6307 4.9998 26.2382 5.23801 26.7007 5.66687C27.1632 6.09573 27.4464 6.68356 27.4938 7.3125L27.5 7.5V22.5C27.5002 23.1307 27.262 23.7382 26.8331 24.2007C26.4043 24.6632 25.8164 24.9464 25.1875 24.9938L25 25H5C4.36928 25.0002 3.76179 24.762 3.29932 24.3331C2.83684 23.9043 2.55355 23.3164 2.50625 22.6875L2.5 22.5V7.5C2.4998 6.86928 2.73801 6.26179 3.16687 5.79932C3.59573 5.33684 4.18356 5.05355 4.8125 5.00625L5 5H25ZM25 9.2675L16.325 17.9425C15.9734 18.2936 15.4969 18.4908 15 18.4908C14.5031 18.4908 14.0266 18.2936 13.675 17.9425L5 9.2675V22.5H25V9.2675ZM23.2325 7.5H6.7675L15 15.7325L23.2325 7.5Z" fill="#FFCD00"/>
</g>
<defs>
<clipPath id="clip0_21_354">
<path d="M0 10C0 4.47715 4.47715 0 10 0H20C25.5228 0 30 4.47715 30 10V20C30 25.5228 25.5228 30 20 30H10C4.47715 30 0 25.5228 0 20V10Z" fill="white"/>
</clipPath>
</defs>
</svg>
