<svg width="49" height="49" viewBox="0 0 49 49" fill="none" xmlns="http://www.w3.org/2000/svg">
<path d="M24.5754 18.3215C22.9557 18.3215 21.4023 18.965 20.257 20.1103C19.1117 21.2556 18.4683 22.809 18.4683 24.4287C18.4683 26.0484 19.1117 27.6018 20.257 28.7471C21.4023 29.8924 22.9557 30.5358 24.5754 30.5358C26.1951 30.5358 27.7485 29.8924 28.8938 28.7471C30.0391 27.6018 30.6825 26.0484 30.6825 24.4287C30.6825 22.809 30.0391 21.2556 28.8938 20.1103C27.7485 18.965 26.1951 18.3215 24.5754 18.3215ZM24.5754 14.2501C27.2749 14.2501 29.8639 15.3225 31.7727 17.2313C33.6816 19.1402 34.754 21.7292 34.754 24.4287C34.754 27.1282 33.6816 29.7172 31.7727 31.626C29.8639 33.5349 27.2749 34.6072 24.5754 34.6072C21.8759 34.6072 19.2869 33.5349 17.3781 31.626C15.4692 29.7172 14.3968 27.1282 14.3968 24.4287C14.3968 21.7292 15.4692 19.1402 17.3781 17.2313C19.2869 15.3225 21.8759 14.2501 24.5754 14.2501ZM37.8075 13.7412C37.8075 14.4161 37.5395 15.0633 37.0622 15.5405C36.585 16.0177 35.9378 16.2858 35.2629 16.2858C34.588 16.2858 33.9408 16.0177 33.4636 15.5405C32.9864 15.0633 32.7183 14.4161 32.7183 13.7412C32.7183 13.0663 32.9864 12.4191 33.4636 11.9418C33.9408 11.4646 34.588 11.1965 35.2629 11.1965C35.9378 11.1965 36.585 11.4646 37.0622 11.9418C37.5395 12.4191 37.8075 13.0663 37.8075 13.7412ZM24.5754 8.14296C19.539 8.14296 18.7166 8.15721 16.3735 8.26103C14.7775 8.33636 13.7067 8.5501 12.7133 8.93689C11.8819 9.24212 11.1304 9.73135 10.5147 10.368C9.87756 10.9836 9.38766 11.7352 9.08158 12.5666C8.6948 13.5641 8.48105 14.6328 8.40776 16.2268C8.30191 18.4742 8.28765 19.26 8.28765 24.4287C8.28765 29.4671 8.30191 30.2875 8.40573 32.6306C8.48105 34.2245 8.6948 35.2974 9.07955 36.2887C9.42562 37.1743 9.83276 37.8115 10.5086 38.4873C11.1947 39.1713 11.8318 39.5805 12.7072 39.9184C13.7128 40.3072 14.7836 40.523 16.3715 40.5963C18.6189 40.7022 19.4047 40.7144 24.5734 40.7144C29.6118 40.7144 30.4322 40.7001 32.7753 40.5963C34.3672 40.521 35.438 40.3073 36.4334 39.9225C37.264 39.6158 38.0153 39.1267 38.632 38.4914C39.3181 37.8074 39.7272 37.1702 40.0652 36.2928C40.4519 35.2912 40.6677 34.2205 40.741 32.6285C40.8469 30.3831 40.8591 29.5953 40.8591 24.4287C40.8591 19.3923 40.8448 18.5699 40.741 16.2268C40.6657 14.6349 40.4499 13.56 40.0652 12.5666C39.7583 11.736 39.2693 10.9848 38.634 10.368C38.0187 9.73051 37.2671 9.24055 36.4355 8.93485C35.438 8.54807 34.3672 8.33432 32.7753 8.26103C30.5299 8.15518 29.7461 8.14296 24.5754 8.14296ZM24.5754 4.07153C30.1064 4.07153 30.7966 4.09189 32.9687 4.19368C35.1347 4.29546 36.6126 4.63543 37.9093 5.14028C39.2529 5.65735 40.3848 6.35764 41.5166 7.48746C42.5518 8.50511 43.3527 9.73609 43.8638 11.0947C44.3666 12.3915 44.7086 13.8694 44.8104 16.0375C44.9061 18.2075 44.9325 18.8976 44.9325 24.4287C44.9325 29.9597 44.9122 30.6498 44.8104 32.8199C44.7086 34.9879 44.3666 36.4638 43.8638 37.7626C43.3542 39.122 42.553 40.3532 41.5166 41.3699C40.4987 42.4047 39.2678 43.2056 37.9093 43.7171C36.6126 44.2199 35.1347 44.5619 32.9687 44.6637C30.7966 44.7594 30.1064 44.7858 24.5754 44.7858C19.0444 44.7858 18.3543 44.7655 16.1822 44.6637C14.0162 44.5619 12.5403 44.2199 11.2415 43.7171C9.88228 43.2071 8.65109 42.406 7.63419 41.3699C6.59889 40.3524 5.79789 39.1214 5.28701 37.7626C4.78215 36.4659 4.44219 34.9879 4.3404 32.8199C4.24269 30.6498 4.21826 29.9597 4.21826 24.4287C4.21826 18.8976 4.23862 18.2075 4.3404 16.0375C4.44219 13.8674 4.78215 12.3935 5.28701 11.0947C5.79642 9.73526 6.59761 8.50394 7.63419 7.48746C8.65138 6.45175 9.88249 5.6507 11.2415 5.14028C12.5382 4.63543 14.0141 4.29546 16.1822 4.19368C18.3543 4.098 19.0444 4.07153 24.5754 4.07153Z" fill="white"/>
</svg>
