<svg width="50" height="49" viewBox="0 0 50 49" fill="none" xmlns="http://www.w3.org/2000/svg">
<path d="M14.845 10.1787C14.8445 11.2585 14.415 12.2939 13.6511 13.057C12.8871 13.8202 11.8514 14.2486 10.7715 14.2481C9.69173 14.2475 8.65636 13.8181 7.8932 13.0541C7.13004 12.2902 6.70161 11.2544 6.70215 10.1746C6.70269 9.09481 7.13216 8.05944 7.89608 7.29628C8.66 6.53312 9.6958 6.10469 10.7756 6.10523C11.8554 6.10577 12.8908 6.53524 13.654 7.29916C14.4171 8.06308 14.8455 9.09888 14.845 10.1787ZM14.9671 17.263H6.82429V42.7501H14.9671V17.263ZM27.8329 17.263H19.7307V42.7501H27.7514V29.3755C27.7514 21.9248 37.4618 21.2326 37.4618 29.3755V42.7501H45.5029V26.6069C45.5029 14.0465 31.1307 14.5148 27.7514 20.683L27.8329 17.263Z" fill="white"/>
</svg>
