<svg width="50" height="49" viewBox="0 0 50 49" fill="none" xmlns="http://www.w3.org/2000/svg">
<path d="M45.6459 11.514C44.0924 12.2012 42.445 12.6527 40.7582 12.8535C42.5355 11.7891 43.8652 10.1149 44.4998 8.14281C42.8305 9.13624 41.0004 9.83245 39.095 10.2091C37.8137 8.83817 36.1154 7.92899 34.2641 7.62286C32.4128 7.31673 30.5123 7.63081 28.8579 8.51627C27.2035 9.40173 25.8881 10.809 25.116 12.5192C24.3439 14.2294 24.1584 16.1468 24.5885 17.9733C21.203 17.8039 17.8909 16.9243 14.8674 15.3917C11.8439 13.8591 9.17657 11.7077 7.03858 9.07721C6.28189 10.3769 5.88424 11.8544 5.88637 13.3583C5.88637 16.3101 7.39076 18.9178 9.6728 20.4446C8.32111 20.402 6.99918 20.037 5.81715 19.38V19.4838C5.81709 21.45 6.49715 23.3558 7.74198 24.8778C8.98682 26.3998 10.7198 27.4443 12.647 27.8343C11.3922 28.1747 10.0765 28.2248 8.79947 27.9808C9.34285 29.6733 10.402 31.1535 11.8286 32.2139C13.2552 33.2744 14.9778 33.862 16.755 33.8946C14.9888 35.2818 12.9663 36.3073 10.8034 36.9123C8.64055 37.5173 6.3796 37.69 4.1499 37.4205C8.04162 39.9231 12.5719 41.2518 17.1988 41.2476C32.8616 41.2476 41.4238 28.274 41.4238 17.0226C41.4238 16.6562 41.4157 16.2857 41.3994 15.9213C43.0654 14.7169 44.5034 13.2231 45.6459 11.514Z" fill="white"/>
</svg>
